HIERARCHY
ROOT hip
{
  OFFSET 5.70873 43.8894 -1.52928
  CHANNELS 6 Xposition Yposition Zposition Zrotation Xrotation Yrotation
  JOINT abdomen
  {
    OFFSET 0 5.99393 0.287273
    CHANNELS 6 Xposition Yposition Zposition Zrotation Xrotation Yrotation
    JOINT chest
    {
      OFFSET 0 6.65865 -0.856112
      CHANNELS 6 Xposition Yposition Zposition Zrotation Xrotation Yrotation
      JOINT neck
      {
        OFFSET 0 8.65624 -1.42685
        CHANNELS 6 Xposition Yposition Zposition Zrotation Xrotation Yrotation
        JOINT head
        {
          OFFSET 0 3.80999 -0.190247
          CHANNELS 6 Xposition Yposition Zposition Zrotation Xrotation Yrotation
          End Site
          {
            OFFSET 0 0 0
          }
        }
      }
      JOINT rCollar
      {
        OFFSET -1.4963 7.5744 -1.52136
        CHANNELS 6 Xposition Yposition Zposition Zrotation Xrotation Yrotation
        JOINT rShldr
        {
          OFFSET -5.47506 -0.905672 0.485692
          CHANNELS 6 Xposition Yposition Zposition Zrotation Xrotation Yrotation
          JOINT rForeArm
          {
            OFFSET -11.3069 -0.201091 0.618544
            CHANNELS 6 Xposition Yposition Zposition Zrotation Xrotation Yrotation
            JOINT rHand
            {
              OFFSET -9.61414 -0.254739 3.48553
              CHANNELS 6 Xposition Yposition Zposition Zrotation Xrotation Yrotation
              JOINT rThumb1
              {
                OFFSET 0.176263 -0.07068 1.26622
                CHANNELS 6 Xposition Yposition Zposition Zrotation Xrotation Yrotation
                JOINT rThumb2
                {
                  OFFSET -1.04683 -0.546484 1.82182
                  CHANNELS 6 Xposition Yposition Zposition Zrotation Xrotation Yrotation
                  JOINT rThumb3
                  {
                    OFFSET -0.993472 -0.621916 0.655506
                    CHANNELS 6 Xposition Yposition Zposition Zrotation Xrotation Yrotation
                    End Site
                    {
                      OFFSET -0.996134 -0.66263 0.644615
                    }
                  }
                }
              }
              JOINT rIndex1
              {
                OFFSET -2.64253 0.566363 2.4162
                CHANNELS 6 Xposition Yposition Zposition Zrotation Xrotation Yrotation
                JOINT rIndex2
                {
                  OFFSET -1.39394 -0.635138 0.899356
                  CHANNELS 6 Xposition Yposition Zposition Zrotation Xrotation Yrotation
                  JOINT rIndex3
                  {
                    OFFSET -0.622395 -0.856016 0.402182
                    CHANNELS 6 Xposition Yposition Zposition Zrotation Xrotation Yrotation
                    End Site
                    {
                      OFFSET -0.472476 -0.801802 0.34216
                    }
                  }
                }
              }
              JOINT rMid1
              {
                OFFSET -3.20814 0.514427 1.52547
                CHANNELS 6 Xposition Yposition Zposition Zrotation Xrotation Yrotation
                JOINT rMid2
                {
                  OFFSET -1.56545 -0.497974 0.68919
                  CHANNELS 6 Xposition Yposition Zposition Zrotation Xrotation Yrotation
                  JOINT rMid3
                  {
                    OFFSET -0.679943 -1.17582 0.444246
                    CHANNELS 6 Xposition Yposition Zposition Zrotation Xrotation Yrotation
                    End Site
                    {
                      OFFSET -0.343874 -0.941341 0.267611
                    }
                  }
                }
              }
              JOINT rRing1
              {
                OFFSET -3.47877 0.200518 0.597719
                CHANNELS 6 Xposition Yposition Zposition Zrotation Xrotation Yrotation
                JOINT rRing2
                {
                  OFFSET -1.28208 -0.53155 0.44672
                  CHANNELS 6 Xposition Yposition Zposition Zrotation Xrotation Yrotation
                  JOINT rRing3
                  {
                    OFFSET -0.710288 -0.970167 0.4032
                    CHANNELS 6 Xposition Yposition Zposition Zrotation Xrotation Yrotation
                    End Site
                    {
                      OFFSET -0.403228 -0.950952 0.378354
                    }
                  }
                }
              }
              JOINT rPinky1
              {
                OFFSET -3.42483 -0.278904 -0.240415
                CHANNELS 6 Xposition Yposition Zposition Zrotation Xrotation Yrotation
                JOINT rPinky2
                {
                  OFFSET -1.05787 -0.635999 0.156459
                  CHANNELS 6 Xposition Yposition Zposition Zrotation Xrotation Yrotation
                  JOINT rPinky3
                  {
                    OFFSET -0.42815 -0.754232 0.287187
                    CHANNELS 6 Xposition Yposition Zposition Zrotation Xrotation Yrotation
                    End Site
                    {
                      OFFSET -0.235717 -0.725605 0.279416
                    }
                  }
                }
              }
            }
          }
        }
      }
      JOINT lCollar
      {
        OFFSET 1.4963 7.5744 -1.52136
        CHANNELS 6 Xposition Yposition Zposition Zrotation Xrotation Yrotation
        JOINT lShldr
        {
          OFFSET 5.47506 -0.905672 0.485692
          CHANNELS 6 Xposition Yposition Zposition Zrotation Xrotation Yrotation
          JOINT lForeArm
          {
            OFFSET 11.3069 -0.201091 0.618544
            CHANNELS 6 Xposition Yposition Zposition Zrotation Xrotation Yrotation
            JOINT lHand
            {
              OFFSET 9.61414 -0.254739 3.48553
              CHANNELS 6 Xposition Yposition Zposition Zrotation Xrotation Yrotation
              JOINT lThumb1
              {
                OFFSET -0.176263 -0.07068 1.26622
                CHANNELS 6 Xposition Yposition Zposition Zrotation Xrotation Yrotation
                JOINT lThumb2
                {
                  OFFSET 1.04683 -0.546484 1.82182
                  CHANNELS 6 Xposition Yposition Zposition Zrotation Xrotation Yrotation
                  JOINT lThumb3
                  {
                    OFFSET 0.993472 -0.621916 0.655506
                    CHANNELS 6 Xposition Yposition Zposition Zrotation Xrotation Yrotation
                    End Site
                    {
                      OFFSET 0.996134 -0.66263 0.644615
                    }
                  }
                }
              }
              JOINT lIndex1
              {
                OFFSET 2.64253 0.566363 2.4162
                CHANNELS 6 Xposition Yposition Zposition Zrotation Xrotation Yrotation
                JOINT lIndex2
                {
                  OFFSET 1.39394 -0.635138 0.899356
                  CHANNELS 6 Xposition Yposition Zposition Zrotation Xrotation Yrotation
                  JOINT lIndex3
                  {
                    OFFSET 0.622395 -0.856016 0.402182
                    CHANNELS 6 Xposition Yposition Zposition Zrotation Xrotation Yrotation
                    End Site
                    {
                      OFFSET 0.472476 -0.801802 0.34216
                    }
                  }
                }
              }
              JOINT lMid1
              {
                OFFSET 3.20814 0.514427 1.52547
                CHANNELS 6 Xposition Yposition Zposition Zrotation Xrotation Yrotation
                JOINT lMid2
                {
                  OFFSET 1.56545 -0.497974 0.68919
                  CHANNELS 6 Xposition Yposition Zposition Zrotation Xrotation Yrotation
                  JOINT lMid3
                  {
                    OFFSET 0.679943 -1.17582 0.444246
                    CHANNELS 6 Xposition Yposition Zposition Zrotation Xrotation Yrotation
                    End Site
                    {
                      OFFSET 0.343874 -0.941341 0.267611
                    }
                  }
                }
              }
              JOINT lRing1
              {
                OFFSET 3.47877 0.200518 0.597719
                CHANNELS 6 Xposition Yposition Zposition Zrotation Xrotation Yrotation
                JOINT lRing2
                {
                  OFFSET 1.28208 -0.53155 0.44672
                  CHANNELS 6 Xposition Yposition Zposition Zrotation Xrotation Yrotation
                  JOINT lRing3
                  {
                    OFFSET 0.710288 -0.970167 0.4032
                    CHANNELS 6 Xposition Yposition Zposition Zrotation Xrotation Yrotation
                    End Site
                    {
                      OFFSET 0.403228 -0.950952 0.378354
                    }
                  }
                }
              }
              JOINT lPinky1
              {
                OFFSET 3.42483 -0.278904 -0.240415
                CHANNELS 6 Xposition Yposition Zposition Zrotation Xrotation Yrotation
                JOINT lPinky2
                {
                  OFFSET 1.05787 -0.635999 0.156459
                  CHANNELS 6 Xposition Yposition Zposition Zrotation Xrotation Yrotation
                  JOINT lPinky3
                  {
                    OFFSET 0.42815 -0.754232 0.287187
                    CHANNELS 6 Xposition Yposition Zposition Zrotation Xrotation Yrotation
                    End Site
                    {
                      OFFSET 0.235717 -0.725605 0.279416
                    }
                  }
                }
              }
            }
          }
        }
      }
    }
  }
  JOINT rThigh
  {
    OFFSET -4.17848 -1.02486 0.046356
    CHANNELS 6 Xposition Yposition Zposition Zrotation Xrotation Yrotation
    JOINT rShin
    {
      OFFSET 1.27155 -17.465 -0.237699
      CHANNELS 6 Xposition Yposition Zposition Zrotation Xrotation Yrotation
      JOINT rFoot
      {
        OFFSET 0.529163 -17.3815 -1.19582
        CHANNELS 6 Xposition Yposition Zposition Zrotation Xrotation Yrotation
        JOINT rToe
        {
          OFFSET -0.711591 -4.4863 4.0596
          CHANNELS 6 Xposition Yposition Zposition Zrotation Xrotation Yrotation
          End Site
          {
            OFFSET -0.869915 -1.10655 1.99006
          }
        }
      }
    }
  }
  JOINT lThigh
  {
    OFFSET 4.17848 -1.02486 0.046356
    CHANNELS 6 Xposition Yposition Zposition Zrotation Xrotation Yrotation
    JOINT lShin
    {
      OFFSET -1.27155 -17.465 -0.237699
      CHANNELS 6 Xposition Yposition Zposition Zrotation Xrotation Yrotation
      JOINT lFoot
      {
        OFFSET -0.529163 -17.3815 -1.19582
        CHANNELS 6 Xposition Yposition Zposition Zrotation Xrotation Yrotation
        JOINT lToe
        {
          OFFSET 0.711591 -4.4863 4.0596
          CHANNELS 6 Xposition Yposition Zposition Zrotation Xrotation Yrotation
          End Site
          {
            OFFSET 0.869915 -1.10655 1.99006
          }
        }
      }
    }
  }
}
MOTION
Frames:	4
Frame Time:	0.0333333
4.87625 14.4193 -18.3523 12.7997 10.1781 -55.1364 -1.77636e-015 5.99393 0.287273 -0.213747 -4.64256 2.54225 0 6.65865 -0.856112 -0.220955 -9.29001 5.09228 -1.77636e-015 8.65624 -1.42685 0.173803 0.714267 -4.39517 0 3.80999 -0.190247 6.57719 -0.317215 -2.2509 -1.4963 7.5744 -1.52136 -6.93188 -1.06537 30.815 -5.47506 -0.905672 0.485692 37.6816 -28.472 58.603 -11.3069 -0.201091 0.618544 18.1904 -1.81899 37.2654 -9.61414 -0.254739 3.48553 -40.4447 -45.87 -35.3188 0.176263 -0.07068 1.26622 -27.0717 34.1213 37.4742 -1.04683 -0.546484 1.82182 3.31223 -2.96561 9.24487 -0.993472 -0.621916 0.655506 -4.3271 5.93879 -14.9479 -2.64253 0.566363 2.4162 13.4016 5.92243 -12.0718 -1.39394 -0.635138 0.899356 44.7396 8.15934 -10.1718 -0.622395 -0.856016 0.402182 45.8626 8.24908 -10.4911 -3.20814 0.514427 1.52547 7.09753 0.88663 -2.2312 -1.56545 -0.497974 0.68919 52.741 10.533 -13.0891 -0.679943 -1.17582 0.444246 15.4526 4.3631 -2.78813 -3.47877 0.200518 0.597719 14.3185 -1.13396 -5.52056 -1.28208 -0.53155 0.44672 21.365 6.41229 -5.10257 -0.710288 -0.970167 0.4032 22.9813 6.80615 -5.57298 -3.42483 -0.278904 -0.240415 -6.90656 -7.98248 -6.36561 -1.05787 -0.635999 0.156459 25.752 8.21712 -6.21985 -0.42815 -0.754232 0.287187 15.2761 5.26325 -3.27308 1.4963 7.5744 -1.52136 2.95989 -2.02066 -17.8095 5.47506 -0.905672 0.485692 -54.6327 -0.528564 -50.8076 11.3069 -0.201091 0.618544 -8.64227 -17.6655 -47.8194 9.61414 -0.254739 3.48553 2.78863 -22.8732 10.8455 -0.176263 -0.07068 1.26622 24.2781 38.4818 -35.502 1.04683 -0.546484 1.82182 -6.53072 -1.24804 -11.4613 0.993472 -0.621916 0.655506 6.44963 2.66634 11.8065 2.64253 0.566363 2.4162 -5.18958 4.48764 12.5175 1.39394 -0.635138 0.899356 -36.9448 6.74314 17.0313 0.622395 -0.856016 0.402182 -38.0061 6.76623 17.5557 3.20814 0.514427 1.52547 -1.47609 -0.686091 1.66302 1.56545 -0.497974 0.68919 -44.4864 8.35694 21.3999 0.679943 -1.17582 0.444246 -9.35857 3.19843 3.99055 3.47877 0.200518 0.597719 -8.0695 -2.63333 5.98932 1.28208 -0.53155 0.44672 -14.7799 5.14985 7.29424 0.710288 -0.970167 0.4032 -16.2789 5.55271 8.08404 3.42483 -0.278904 -0.240415 11.768 -11.3012 2.60025 1.05787 -0.635999 0.156459 -18.8945 6.82226 9.38211 0.42815 -0.754232 0.287187 -9.18588 3.76019 4.34831 -4.17848 -1.02486 0.046356 -62.8474 -30.1136 -24.8282 1.27155 -17.465 -0.237699 154.505 53.741 -143.25 0.529163 -17.3815 -1.19582 -6.4668 52.1105 44.6154 -0.711591 -4.4863 4.0596 -13.5753 28.3871 -6.17308 4.17848 -1.02486 0.046356 64.3454 -38.2829 46.4074 -1.27155 -17.465 -0.237699 168.879 55.3302 -167.762 -0.529163 -17.3815 -1.19582 14.787 42.2504 -46.3596 0.711591 -4.4863 4.0596 12.815 54.9416 13.1071 
4.89745 14.3881 -18.3193 12.7369 10.122 -54.9692 0 5.99393 0.287273 -0.284305 -4.45189 2.41912 1.77636e-015 6.65865 -0.856112 -0.380994 -8.91182 4.83812 -1.77636e-015 8.65624 -1.42685 -0.235228 0.581633 -4.1095 0 3.80999 -0.190247 6.99928 -0.542258 -1.92774 -1.4963 7.5744 -1.52136 -7.21269 -1.11509 30.605 -5.47506 -0.905672 0.485692 37.6004 -28.3732 58.3834 -11.3069 -0.201091 0.618544 17.6658 -2.19771 38.9157 -9.61414 -0.254739 3.48553 -40.9505 -45.5401 -36.5111 0.176263 -0.07068 1.26622 -27.0528 34.1141 37.4478 -1.04683 -0.546484 1.82182 3.30819 -2.96253 9.23423 -0.993472 -0.621916 0.655506 -4.3233 5.93184 -14.9321 -2.64253 0.566363 2.4162 13.3942 5.9183 -12.0618 -1.39394 -0.635138 0.899356 44.7217 8.15787 -10.1667 -0.622395 -0.856016 0.402182 45.8441 8.24768 -10.4858 -3.20814 0.514427 1.52547 7.09752 0.886636 -2.2312 -1.56545 -0.497974 0.68919 52.7193 10.5315 -13.0822 -0.679943 -1.17582 0.444246 15.4393 4.35972 -2.78526 -3.47877 0.200518 0.597719 14.3116 -1.12848 -5.51696 -1.28208 -0.53155 0.44672 21.3577 6.41047 -5.10048 -0.710288 -0.970167 0.4032 22.9654 6.80236 -5.5683 -3.42483 -0.278904 -0.240415 -6.89587 -7.97318 -6.361 -1.05787 -0.635999 0.156459 25.7335 8.21246 -6.21422 -0.42815 -0.754232 0.287187 15.2629 5.25913 -3.26966 1.4963 7.5744 -1.52136 2.84292 -2.02825 -17.5422 5.47506 -0.905672 0.485692 -54.2503 -0.756692 -50.8292 11.3069 -0.201091 0.618544 -9.54526 -17.3749 -49.2241 9.61414 -0.254739 3.48553 3.60572 -22.42 11.6884 -0.176263 -0.07068 1.26622 24.2634 38.4753 -35.4787 1.04683 -0.546484 1.82182 -6.52903 -1.24789 -11.4584 0.993472 -0.621916 0.655506 6.44699 2.66493 11.8015 2.64253 0.566363 2.4162 -5.18875 4.48737 12.5171 1.39394 -0.635138 0.899356 -36.9417 6.74308 17.0298 0.622395 -0.856016 0.402182 -38.0003 6.76614 17.5528 3.20814 0.514427 1.52547 -1.47565 -0.683901 1.66106 1.56545 -0.497974 0.68919 -44.4827 8.35698 21.398 0.679943 -1.17582 0.444246 -9.35574 3.19758 3.98928 3.47877 0.200518 0.597719 -8.06863 -2.62984 5.98638 1.28208 -0.53155 0.44672 -14.7779 5.14929 7.29319 0.710288 -0.970167 0.4032 -16.2789 5.55273 8.08404 3.42483 -0.278904 -0.240415 11.7579 -11.298 2.60183 1.05787 -0.635999 0.156459 -18.8902 6.8211 9.37978 0.42815 -0.754232 0.287187 -9.18563 3.76236 4.34875 -4.17848 -1.02486 0.046356 -62.9793 -29.9669 -24.7761 1.27155 -17.465 -0.237699 154.422 53.8541 -143.214 0.529163 -17.3815 -1.19582 -6.71268 52.2453 45.0959 -0.711591 -4.4863 4.0596 -13.5735 28.1508 -6.22769 4.17848 -1.02486 0.046356 64.401 -38.4315 46.3154 -1.27155 -17.465 -0.237699 168.896 55.2368 -167.761 -0.529163 -17.3815 -1.19582 14.9115 42.199 -46.6315 0.711591 -4.4863 4.0596 12.8148 55.0346 12.9781 
4.9129 14.3671 -18.2762 12.6878 10.0483 -54.8021 0 5.99393 0.287273 -0.356426 -4.24298 2.24133 1.77636e-015 6.65865 -0.856112 -0.547966 -8.49663 4.47468 1.77636e-015 8.65624 -1.42685 -0.650381 0.375136 -3.69264 0 3.80999 -0.190247 7.27378 -0.772165 -1.57621 -1.4963 7.5744 -1.52136 -7.51398 -1.16303 30.3799 -5.47506 -0.905672 0.485692 37.6199 -28.1526 58.244 -11.3069 -0.201091 0.618544 17.2883 -2.77047 40.6566 -9.61414 -0.254739 3.48553 -41.3095 -44.9858 -37.4026 0.176263 -0.07068 1.26622 -26.9796 34.0859 37.3455 -1.04683 -0.546484 1.82182 3.30415 -2.95946 9.22358 -0.993472 -0.621916 0.655506 -4.31949 5.9249 -14.9162 -2.64253 0.566363 2.4162 13.3869 5.91418 -12.0519 -1.39394 -0.635138 0.899356 44.6689 8.1535 -10.1518 -0.622395 -0.856016 0.402182 45.7727 8.24217 -10.4655 -3.20814 0.514427 1.52547 7.09752 0.886619 -2.23119 -1.56545 -0.497974 0.68919 52.6552 10.5271 -13.0619 -0.679943 -1.17582 0.444246 15.426 4.35635 -2.78238 -3.47877 0.200518 0.597719 14.3048 -1.12296 -5.51335 -1.28208 -0.53155 0.44672 21.3294 6.40345 -5.0923 -0.710288 -0.970167 0.4032 22.9495 6.79858 -5.56363 -3.42483 -0.278904 -0.240415 -6.88517 -7.9639 -6.35643 -1.05787 -0.635999 0.156459 25.7151 8.20776 -6.20859 -0.42815 -0.754232 0.287187 15.2496 5.25504 -3.26626 1.4963 7.5744 -1.52136 2.64937 -2.03404 -17.2915 5.47506 -0.905672 0.485692 -53.825 -1.11723 -50.6102 11.3069 -0.201091 0.618544 -10.6139 -17.0973 -50.9025 9.61414 -0.254739 3.48553 4.19891 -21.8223 12.5005 -0.176263 -0.07068 1.26622 24.2487 38.4688 -35.4555 1.04683 -0.546484 1.82182 -6.52734 -1.24773 -11.4554 0.993472 -0.621916 0.655506 6.44435 2.6635 11.7965 2.64253 0.566363 2.4162 -5.18793 4.48711 12.5167 1.39394 -0.635138 0.899356 -36.9386 6.74298 17.0282 0.622395 -0.856016 0.402182 -37.9945 6.76604 17.5499 3.20814 0.514427 1.52547 -1.47523 -0.681733 1.6591 1.56545 -0.497974 0.68919 -44.4789 8.35702 21.396 0.679943 -1.17582 0.444246 -9.35291 3.19671 3.988 3.47877 0.200518 0.597719 -8.06778 -2.62637 5.98345 1.28208 -0.53155 0.44672 -14.7758 5.14873 7.29212 0.710288 -0.970167 0.4032 -16.2789 5.55271 8.08404 3.42483 -0.278904 -0.240415 11.7204 -11.2785 2.60312 1.05787 -0.635999 0.156459 -18.8858 6.81996 9.37746 0.42815 -0.754232 0.287187 -9.1854 3.76454 4.3492 -4.17848 -1.02486 0.046356 -63.1511 -29.8226 -24.7598 1.27155 -17.465 -0.237699 154.329 53.9895 -143.192 0.529163 -17.3815 -1.19582 -7.09706 52.3995 45.6313 -0.711591 -4.4863 4.0596 -13.5569 27.9281 -6.27406 4.17848 -1.02486 0.046356 64.3718 -38.5049 46.194 -1.27155 -17.465 -0.237699 168.899 55.2115 -167.745 -0.529163 -17.3815 -1.19582 15.0772 42.153 -46.8334 0.711591 -4.4863 4.0596 12.8085 55.146 12.8004 
4.93138 14.3618 -18.2229 12.6399 9.96683 -54.6166 0 5.99393 0.287273 -0.459618 -4.02228 2.07472 0 6.65865 -0.856112 -0.775393 -8.05846 4.13226 0 8.65624 -1.42685 -1.06925 0.423673 -3.3034 0 3.80999 -0.190247 7.68947 -1.03705 -1.10096 -1.4963 7.5744 -1.52136 -7.83814 -1.23107 30.0745 -5.47506 -0.905672 0.485692 37.5473 -27.9192 57.978 -11.3069 -0.201091 0.618544 17.0792 -3.45833 42.4966 -9.61414 -0.254739 3.48553 -41.7632 -44.3884 -38.245 0.176263 -0.07068 1.26622 -26.9066 34.0577 37.2433 -1.04683 -0.546484 1.82182 3.29244 -2.95058 9.19275 -0.993472 -0.621916 0.655506 -4.3157 5.91797 -14.9004 -2.64253 0.566363 2.4162 13.3689 5.90414 -12.0276 -1.39394 -0.635138 0.899356 44.5829 8.14638 -10.1274 -0.622395 -0.856016 0.402182 45.7013 8.23666 -10.4452 -3.20814 0.514427 1.52547 7.09749 0.886614 -2.23119 -1.56545 -0.497974 0.68919 52.5506 10.5199 -13.0288 -0.679943 -1.17582 0.444246 15.4127 4.35299 -2.77951 -3.47877 0.200518 0.597719 14.2865 -1.11745 -5.50163 -1.28208 -0.53155 0.44672 21.3011 6.39645 -5.08415 -0.710288 -0.970167 0.4032 22.9109 6.78933 -5.55222 -3.42483 -0.278904 -0.240415 -6.85835 -7.94203 -6.34377 -1.05787 -0.635999 0.156459 25.6701 8.19638 -6.19492 -0.42815 -0.754232 0.287187 15.2364 5.25094 -3.26288 1.4963 7.5744 -1.52136 2.29373 -2.03947 -17.0864 5.47506 -0.905672 0.485692 -53.3 -1.50067 -50.4686 11.3069 -0.201091 0.618544 -11.6037 -16.6843 -52.4066 9.61414 -0.254739 3.48553 4.47365 -21.2588 13.1734 -0.176263 -0.07068 1.26622 24.202 38.4472 -35.3832 1.04683 -0.546484 1.82182 -6.52019 -1.24709 -11.443 0.993472 -0.621916 0.655506 6.44173 2.66209 11.7915 2.64253 0.566363 2.4162 -5.18709 4.48687 12.5163 1.39394 -0.635138 0.899356 -36.9355 6.7429 17.0267 0.622395 -0.856016 0.402182 -37.9887 6.76593 17.5471 3.20814 0.514427 1.52547 -1.4748 -0.679546 1.65713 1.56545 -0.497974 0.68919 -44.4752 8.35706 21.3941 0.679943 -1.17582 0.444246 -9.35008 3.19588 3.98674 3.47877 0.200518 0.597719 -8.06691 -2.62287 5.98051 1.28208 -0.53155 0.44672 -14.7738 5.14817 7.29107 0.710288 -0.970167 0.4032 -16.2759 5.55194 8.08245 3.42483 -0.278904 -0.240415 11.6828 -11.259 2.60441 1.05787 -0.635999 0.156459 -18.8815 6.81881 9.37513 0.42815 -0.754232 0.287187 -9.18515 3.76673 4.34965 -4.17848 -1.02486 0.046356 -63.3523 -29.6969 -24.7497 1.27155 -17.465 -0.237699 154.227 54.1426 -143.177 0.529163 -17.3815 -1.19582 -7.46443 52.6197 46.0981 -0.711591 -4.4863 4.0596 -13.5195 27.7155 -6.31048 4.17848 -1.02486 0.046356 64.2851 -38.5706 46.0817 -1.27155 -17.465 -0.237699 168.899 55.2044 -167.724 -0.529163 -17.3815 -1.19582 15.2735 42.0451 -46.9944 0.711591 -4.4863 4.0596 12.6574 55.0167 12.4776 
